<?xml version="1.0" encoding="UTF-8" standalone="no"?>
<svg width="316px" height="69px" viewBox="0 0 316 69" version="1.1" xmlns="http://www.w3.org/2000/svg" xmlns:xlink="http://www.w3.org/1999/xlink" xmlns:sketch="http://www.bohemiancoding.com/sketch/ns">
    <title>Slice 1</title>
    <description>Created with Sketch (http://www.bohemiancoding.com/sketch)</description>
    <defs>
        <path id="path-1" d="M18.125,64.774 C1.391,55.878 -4.963,35.102 3.932,18.37 C12.828,1.638 33.605,-4.714 50.34,4.182 C67.074,13.078 73.429,33.853 64.533,50.585 C55.637,67.318 34.86,73.67 18.125,64.774"></path>
        <mask id="mask-2" sketch:name="Fill 22" fill="white">
            <use xlink:href="#path-1"></use>
        </mask>
    </defs>
    <g id="Page-1" stroke="none" stroke-width="1" fill="none" fill-rule="evenodd" sketch:type="MSPage">
        <g id="Mercator-Logo-Black" sketch:type="MSLayerGroup" transform="translate(1.000000, 0.000000)">
            <g id="Font" transform="translate(78.000000, 6.000000)" sketch:type="MSShapeGroup">
                <g id="Reasearch-Group" transform="translate(0.000000, 28.000000)" fill="#1A1918">
                    <path d="M1.666,26.782 L-0.355,27.076 L-0.355,28.252 L8.171,28.252 L8.171,27.076 L6.15,26.782 L6.15,15.537 L8.686,15.537 L15.264,28.252 L21.511,28.252 L21.511,27.076 L19.49,26.782 L13.426,15.279 C16.293,14.802 19.27,12.56 19.27,9.362 C19.27,3.519 13.867,2.527 9.016,2.527 L-0.355,2.527 L-0.355,3.703 L1.666,3.997 L1.666,26.782 L1.666,26.782 Z M6.15,3.887 C6.995,3.814 7.877,3.703 8.575,3.703 C11.662,3.703 14.419,5.099 14.419,8.995 C14.419,12.523 12.618,14.36 7.804,14.36 L6.15,14.36 L6.15,3.887 L6.15,3.887 Z" id="Fill-1"></path>
                    <path d="M37.13,17.117 C37.094,13.589 34.632,10.135 30.736,10.135 C25.701,10.135 23.349,15.647 23.349,20.24 C23.349,24.577 25.811,28.767 30.111,28.767 C33.492,28.767 35.366,26.966 37.167,24.356 L36.175,23.585 C34.999,24.908 34.374,26.01 32.132,26.01 C28.751,26.01 27.134,22.776 27.024,19.836 L37.13,17.117 L37.13,17.117 Z M26.656,18.293 C26.656,14.618 27.649,11.421 30.185,11.421 C31.839,11.421 32.941,12.413 32.941,14.251 C32.941,16.015 32.39,16.823 30.92,17.191 L26.656,18.293 L26.656,18.293 Z" id="Fill-2"></path>
                    <path d="M44.776,28.767 C48.414,28.767 51.427,26.929 51.427,23.144 C51.427,16.602 42.424,17.962 42.424,14.251 C42.424,12.707 43.747,11.604 45.327,11.421 C45.694,13.075 46.576,14.177 48.23,14.177 C49.259,14.177 50.141,13.589 50.141,12.34 C50.141,10.869 48.708,10.135 47.128,10.135 C44.04,10.135 39.778,12.119 39.778,15.904 C39.778,21.27 48.451,20.534 48.451,24.65 C48.451,26.561 47.054,27.481 45.143,27.481 C44.261,27.481 43.673,27.37 43.526,26.268 C43.379,25.018 42.681,23.658 40.917,23.658 C39.851,23.658 38.933,24.54 38.933,25.643 C38.933,28.252 42.46,28.767 44.776,28.767" id="Fill-3"></path>
                    <path d="M67.292,17.117 C67.256,13.589 64.794,10.135 60.898,10.135 C55.863,10.135 53.511,15.647 53.511,20.24 C53.511,24.577 55.974,28.767 60.273,28.767 C63.654,28.767 65.528,26.966 67.329,24.356 L66.337,23.585 C65.161,24.908 64.536,26.01 62.294,26.01 C58.914,26.01 57.296,22.776 57.186,19.836 L67.292,17.117 L67.292,17.117 Z M56.818,18.293 C56.818,14.618 57.811,11.421 60.347,11.421 C62,11.421 63.103,12.413 63.103,14.251 C63.103,16.015 62.551,16.823 61.082,17.191 L56.818,18.293 L56.818,18.293 Z" id="Fill-4"></path>
                    <path d="M81.92,15.978 C81.92,11.751 76.371,10.135 73.651,10.135 C72.255,10.135 70.528,10.612 70.528,12.156 C70.528,13.331 71.189,13.883 72.622,13.883 C74.57,13.883 74.864,11.421 75.526,11.421 C76.775,11.421 78.245,12.891 78.245,14.838 L78.245,16.639 C74.349,18.256 69.388,19.616 69.388,24.43 C69.388,26.782 71.153,28.767 73.505,28.767 C75.599,28.767 76.996,27.774 78.392,26.305 C78.686,27.554 79.348,28.767 81.222,28.767 C82.876,28.767 84.272,27.407 84.676,26.672 L84.052,25.9 C83.647,26.194 83.207,26.414 82.802,26.414 C82.03,26.414 81.92,25.79 81.92,25.055 L81.92,15.978 L81.92,15.978 Z M78.245,25.018 C77.767,25.643 76.665,26.194 75.636,26.194 C74.533,26.194 73.211,24.761 73.211,23.254 C73.211,20.498 75.122,18.844 78.245,17.999 L78.245,25.018 L78.245,25.018 Z" id="Fill-5"></path>
                    <path d="M85.229,11.568 L85.229,12.56 C87.287,12.56 87.912,14.875 87.912,16.97 L87.912,26.892 L85.891,27.26 L85.891,28.252 L93.828,28.252 L93.828,27.26 L91.807,26.892 C91.624,25.753 91.587,24.577 91.587,23.474 C91.587,16.896 92.983,14.067 93.755,14.067 C94.012,14.067 94.931,14.471 95.923,14.471 C97.32,14.471 98.422,13.258 98.422,12.303 C98.422,10.906 97.614,10.135 95.96,10.135 C93.351,10.135 92.064,13.736 91.182,15.757 L91.109,15.757 C90.888,13.883 90.447,11.053 89.345,10.135 L85.229,11.568" id="Fill-6"></path>
                    <path d="M112.78,24.577 C111.788,25.496 110.833,26.01 109.473,26.01 C105.725,26.01 103.74,21.711 103.74,18.403 C103.74,13.552 105.688,11.421 107.709,11.421 C108.849,11.421 108.076,14.949 110.796,14.949 C111.825,14.949 112.817,14.214 112.817,13.148 C112.817,10.796 110.318,10.135 108.664,10.135 C103.556,10.135 100.065,14.471 100.065,20.277 C100.065,25.165 103.042,28.767 107.819,28.767 C109.84,28.767 111.825,27.664 113.809,25.386 L112.78,24.577" id="Fill-7"></path>
                    <path d="M134.133,28.252 L134.133,27.26 L132.112,26.892 L132.112,15.978 C132.112,11.531 128.584,10.135 126.342,10.135 C124.725,10.135 122.998,10.869 121.528,12.303 L121.528,0.175 L115.832,2.38 L115.832,3.372 C117.155,3.372 117.853,3.74 117.853,4.953 L117.853,26.892 L115.832,27.26 L115.832,28.252 L123.292,28.252 L123.292,27.26 L121.528,26.892 L121.528,14.067 C121.528,13.442 123.071,12.156 124.835,12.156 C126.453,12.156 128.437,13.184 128.437,15.978 L128.437,26.892 L126.416,27.26 L126.416,28.252 L134.133,28.252" id="Fill-8"></path>
                    <path d="M160.769,26.525 C160.328,26.745 159.447,26.966 158.638,26.966 C151.949,26.966 149.56,18.771 149.56,13.846 C149.56,9.436 151.362,3.446 156.102,3.446 C160.108,3.446 162.276,7.231 163.893,10.244 L165.143,9.804 L163.415,1.976 C162.79,2.417 161.908,2.748 160.88,2.748 C160.145,2.748 159.447,2.527 158.638,2.343 C157.867,2.159 156.984,1.976 155.955,1.976 C149.083,1.976 145.077,9.84 145.077,16.198 C145.077,22.997 149.377,28.803 156.47,28.803 C160.292,28.803 162.423,27.113 165.253,27.076 L165.253,19.249 L167.274,18.954 L167.274,17.778 L158.748,17.778 L158.748,18.954 L160.769,19.249 L160.769,26.525" id="Fill-9"></path>
                    <path d="M168.634,11.568 L168.634,12.56 C170.692,12.56 171.317,14.875 171.317,16.97 L171.317,26.892 L169.296,27.26 L169.296,28.252 L177.234,28.252 L177.234,27.26 L175.213,26.892 C175.029,25.753 174.992,24.577 174.992,23.474 C174.992,16.896 176.388,14.067 177.16,14.067 C177.417,14.067 178.336,14.471 179.328,14.471 C180.725,14.471 181.828,13.258 181.828,12.303 C181.828,10.906 181.019,10.135 179.365,10.135 C176.756,10.135 175.47,13.736 174.588,15.757 L174.514,15.757 C174.294,13.883 173.853,11.053 172.75,10.135 L168.634,11.568" id="Fill-10"></path>
                    <path d="M191.114,28.767 C195.965,28.767 199.015,23.696 199.015,19.469 C199.015,14.508 195.855,10.135 191.114,10.135 C186.374,10.135 183.213,14.508 183.213,19.469 C183.213,24.798 186.263,28.767 191.114,28.767 L191.114,28.767 Z M191.114,27.481 C188.174,27.481 187.403,24.43 187.403,19.469 C187.403,14.14 188.432,11.421 191.114,11.421 C193.797,11.421 194.826,14.214 194.826,19.469 C194.826,22.666 194.054,27.481 191.114,27.481 L191.114,27.481 Z" id="Fill-11"></path>
                    <path d="M206.771,10.135 L201.332,11.862 L201.332,12.854 C202.802,13.001 203.096,13.295 203.096,14.949 L203.096,23.805 C203.096,27.297 205.889,28.767 207.91,28.767 C210.666,28.767 212.541,27.737 213.937,25.937 C214.195,26.929 214.488,27.995 215.223,28.767 L219.193,27.481 L219.193,26.488 C217.722,26.341 217.429,26.047 217.429,24.393 L217.429,10.135 L211.989,11.862 L211.989,12.854 C213.459,13.001 213.753,13.295 213.753,14.949 L213.753,24.026 C213.753,24.834 212.026,26.378 210.115,26.378 C208.682,26.378 206.771,26.01 206.771,23.474 L206.771,10.135" id="Fill-12"></path>
                    <path d="M226.751,33.03 L226.751,27.921 C227.89,28.583 229.03,28.767 229.948,28.767 C234.395,28.767 237.005,22.96 237.005,18.954 C237.005,13.148 234.358,10.135 231.161,10.135 C229.104,10.135 227.523,11.531 226.457,13.111 C226.31,12.046 225.869,10.906 225.134,10.135 L221.312,11.862 L221.312,12.854 C222.782,13.001 223.077,13.295 223.077,14.949 L223.077,33.03 L221.312,33.397 L221.312,34.39 L228.515,34.39 L228.515,33.397 L226.751,33.03 L226.751,33.03 Z M226.751,14.655 C226.751,13.883 228.148,13.001 229.213,13.001 C232.264,13.001 233.329,17.227 233.329,20.608 C233.329,24.283 232.3,27.481 229.764,27.481 C228.111,27.481 226.751,25.9 226.751,25.423 L226.751,14.655 L226.751,14.655 Z" id="Fill-13"></path>
                </g>
                <g id="Mercator" fill="#636462">
                    <path d="M11.739,20.72 L12.62,20.72 L19.787,2.793 L19.86,2.793 L20.375,23.922 L18.17,24.179 L18.17,25.502 L26.181,25.502 L26.181,24.179 L23.976,23.922 L23.278,1.321 L25.52,1.064 L25.52,-0.259 L19.383,-0.259 L13.135,15.419 L6.961,-0.259 L0.824,-0.259 L0.824,1.064 L2.992,1.321 L2.625,18.953 C2.514,23.222 2.184,23.591 -0.426,24.179 L-0.426,25.502 L7.292,25.502 L7.292,24.179 C5.565,23.996 4.242,23.407 4.279,21.271 L4.646,3.014 L4.719,3.014 L11.739,20.72" id="Fill-14"></path>
                    <path d="M42.202,14.477 C41.687,10.839 39.85,7.421 35.771,7.421 C32.169,7.421 28.972,11.354 28.972,17.454 C28.972,21.754 31.361,26.053 36.138,26.053 C39.262,26.053 41.431,23.885 42.606,21.276 L41.687,20.651 C40.548,22.415 39.299,23.591 37.241,23.591 C33.86,23.591 32.243,19.99 32.132,17.454 L42.202,14.477 L42.202,14.477 Z M31.986,15.764 C31.949,15.396 31.949,15.028 31.949,13.89 C31.949,11.684 32.868,8.745 35.991,8.745 C38.123,8.745 38.821,10.655 38.821,12.052 C38.821,13.706 38.049,14.073 36.873,14.404 L31.986,15.764 L31.986,15.764 Z" id="Fill-15"></path>
                    <path d="M52.491,25.502 L52.491,24.4 L50.653,24.142 L50.653,18.814 C50.653,16.094 52.124,10.912 53.74,10.912 C54.292,10.912 54.696,11.354 55.615,11.354 C56.423,11.354 57.525,10.288 57.525,9.443 C57.525,8.267 56.791,7.421 55.467,7.421 C52.822,7.421 50.837,11.758 50.47,13.816 L50.396,13.816 C50.322,11.317 49.441,8.671 48.926,7.421 L45.288,8.965 L45.288,10.067 C45.545,10.03 45.802,9.921 46.059,9.921 C47.015,9.921 47.677,11.978 47.677,14.404 L47.677,24.142 L45.839,24.4 L45.839,25.502 L52.491,25.502" id="Fill-16"></path>
                    <path d="M72.727,20.725 C71.551,22.415 70.375,23.591 68.096,23.591 C64.311,23.591 62.473,19.733 62.473,15.249 C62.473,11.905 64.531,8.745 67.031,8.745 C68.39,8.745 68.501,9.663 68.831,10.508 C69.162,11.39 69.529,12.272 70.779,12.272 C71.918,12.272 72.69,11.611 72.69,10.435 C72.69,8.34 70.522,7.421 67.876,7.421 C62.437,7.421 59.497,12.456 59.497,17.748 C59.497,21.975 62.253,26.053 66.884,26.053 C70.191,26.053 72.212,23.959 73.756,21.423 L72.727,20.725" id="Fill-17"></path>
                    <path d="M87.83,13.779 C87.83,8.634 82.06,7.421 79.818,7.421 C77.393,7.421 76.511,7.936 76.511,9.516 C76.511,10.545 77.173,11.206 78.091,11.206 C80.553,11.206 79.929,8.745 81.289,8.745 C82.464,8.745 84.89,9.847 84.89,13.852 C81.031,14.735 75.188,17.013 75.188,21.68 C75.188,24.253 77.319,26.053 79.818,26.053 C81.656,26.053 83.714,24.987 84.963,23.628 C85.074,24.914 85.919,26.053 87.205,26.053 C88.749,26.053 89.814,25.171 90.659,23.996 L89.888,23.26 C89.667,23.518 89.263,23.922 88.712,23.922 C88.271,23.922 87.83,23.738 87.83,22.893 L87.83,13.779 L87.83,13.779 Z M84.853,21.975 C84.008,23.04 82.832,23.922 81.362,23.922 C79.524,23.922 78.385,22.709 78.385,20.871 C78.385,17.233 82.391,15.653 84.853,15.212 L84.853,21.975 L84.853,21.975 Z" id="Fill-18"></path>
                    <path d="M96.943,7.972 L96.943,0.733 L93.966,3.158 L93.966,7.972 L91.614,7.972 L91.614,9.59 L93.893,9.59 L93.893,20.798 C93.893,24.253 95.179,26.053 97.567,26.053 C99.809,26.053 101.169,25.135 102.786,23.665 L102.235,22.526 C101.279,23.26 100.25,23.922 99.368,23.922 C97.531,23.922 96.869,23.15 96.869,21.092 L96.869,9.59 L101.683,9.59 L101.683,7.972 L96.943,7.972" id="Fill-19"></path>
                    <path d="M104.255,16.756 C104.255,21.129 107.305,26.053 112.119,26.053 C116.934,26.053 119.984,21.129 119.984,16.756 C119.984,12.383 116.934,7.421 112.119,7.421 C107.305,7.421 104.255,12.383 104.255,16.756 L104.255,16.756 Z M112.119,8.745 C115.464,8.745 116.603,12.383 116.603,16.756 C116.603,21.129 115.464,24.731 112.119,24.731 C108.775,24.731 107.636,21.129 107.636,16.756 C107.636,12.383 108.775,8.745 112.119,8.745 L112.119,8.745 Z" id="Fill-20"></path>
                    <path d="M130.015,25.502 L130.015,24.4 L128.178,24.142 L128.178,18.814 C128.178,16.094 129.648,10.912 131.265,10.912 C131.816,10.912 132.221,11.354 133.139,11.354 C133.948,11.354 135.05,10.288 135.05,9.443 C135.05,8.267 134.315,7.421 132.992,7.421 C130.347,7.421 128.362,11.758 127.995,13.816 L127.921,13.816 C127.847,11.317 126.966,8.671 126.451,7.421 L122.813,8.965 L122.813,10.067 C123.07,10.03 123.327,9.921 123.584,9.921 C124.54,9.921 125.202,11.978 125.202,14.404 L125.202,24.142 L123.364,24.4 L123.364,25.502 L130.015,25.502" id="Fill-21"></path>
                </g>
            </g>
            <g id="Logo" sketch:type="MSShapeGroup">
                <use id="Fill-22" fill="#1A1918" xlink:href="#path-1"></use>
                <path d="M30.798,19.26 C30.798,19.26 0.593,18.142 2.829,29.324 C5.065,40.505 57.618,51.686 58.736,60.631 M40.058,-3.159 C40.058,-3.159 9.853,-4.277 12.089,6.904 C14.325,18.086 66.878,29.267 67.996,38.212 C69.114,47.158 10.971,52.748 14.325,68.402" id="Stroke-23" stroke="#FFFFFF" stroke-width="1.118" mask="url(#mask-2)"></path>
                <path d="M23.882,19.022 C23.882,16.407 26.002,14.287 28.617,14.287 C31.232,14.287 33.352,16.407 33.352,19.022 C33.352,21.637 31.232,23.757 28.617,23.757 C26.002,23.757 23.882,21.637 23.882,19.022" id="Fill-25" fill="#636462" mask="url(#mask-2)"></path>
                <path d="M37.355,49.892 C37.355,47.277 39.475,45.157 42.09,45.157 C44.705,45.157 46.824,47.277 46.824,49.892 C46.824,52.507 44.705,54.626 42.09,54.626 C39.475,54.626 37.355,52.507 37.355,49.892" id="Fill-26" fill="#CBCCCB" mask="url(#mask-2)"></path>
            </g>
        </g>
    </g>
</svg>