<?xml version="1.0" encoding="UTF-8" standalone="no"?>
<svg width="123px" height="24px" viewBox="0 0 123 24" version="1.1" xmlns="http://www.w3.org/2000/svg" xmlns:xlink="http://www.w3.org/1999/xlink" xmlns:sketch="http://www.bohemiancoding.com/sketch/ns">
    <title>Slice 1</title>
    <description>Created with Sketch (http://www.bohemiancoding.com/sketch)</description>
    <defs></defs>
    <g id="Page-1" stroke="none" stroke-width="1" fill="none" fill-rule="evenodd" sketch:type="MSPage">
        <g id="Logo-RUB-Black" sketch:type="MSLayerGroup" transform="translate(1.000000, 0.000000)" fill="#1A1918">
            <g id="Logo" transform="translate(62.000000, 0.000000)" sketch:type="MSShapeGroup">
                <path d="M45.782,10.588 L45.782,2.057 L51.692,2.057 C54.404,2.057 56.547,3.303 56.547,6.242 C56.547,9.247 54.088,10.588 51.403,10.588 L45.782,10.588 L45.782,10.588 Z M45.782,21.416 L45.782,12.28 L51.787,12.28 C54.755,12.28 57.152,13.654 57.152,16.785 C57.152,19.977 54.822,21.416 51.848,21.416 L45.782,21.416 L45.782,21.416 Z M43.77,23.141 L52.331,23.141 C55.812,23.141 59.195,21.16 59.195,16.846 C59.195,14.133 57.504,11.77 54.309,11.29 L54.309,11.257 C56.962,10.621 58.526,8.415 58.526,5.922 C58.526,2.25 56.002,0.334 52.168,0.334 L43.77,0.334 L43.77,23.141 L43.77,23.141 Z" id="Fill-1"></path>
                <path d="M30.41,23.523 C35.746,23.523 39.643,20.459 39.643,14.898 L39.643,0.364 L34.725,0.364 L34.725,14.74 C34.725,17.711 33.254,19.242 30.509,19.242 C27.566,19.242 26.227,17.422 26.227,14.74 L26.227,0.364 L21.246,0.364 L21.246,15.186 C21.246,20.777 24.889,23.523 30.41,23.523" id="Fill-2"></path>
                <path d="M13.221,15.512 C16.404,13.705 17.631,11.022 17.631,8.307 C17.631,3.836 14.434,0.353 9.707,0.353 L-0.369,0.353 L-0.369,23.127 L4.582,23.127 L4.582,4.377 L8.476,4.377 C11.249,4.377 12.787,6.032 12.787,8.307 C12.787,10.268 11.58,12.254 8.508,12.254 L5.391,12.254 L13.221,23.127 L18.684,23.127 L13.221,15.512" id="Fill-3"></path>
            </g>
            <g id="Font" sketch:type="MSShapeGroup">
                <path d="M-0.227,23.101 L1.897,23.101 C2.734,23.101 3.532,22.612 3.532,21.603 C3.532,20.972 3.156,20.421 2.44,20.294 L2.44,20.286 C3.042,20.11 3.374,19.626 3.374,19.06 C3.374,18.183 2.772,17.731 1.837,17.731 L-0.227,17.731 L-0.227,23.101 L-0.227,23.101 Z M0.383,22.583 L0.383,20.601 L1.762,20.601 C2.425,20.601 2.922,20.895 2.922,21.573 C2.922,22.259 2.425,22.583 1.769,22.583 L0.383,22.583 L0.383,22.583 Z M0.383,20.091 L0.383,18.251 L1.709,18.251 C2.32,18.251 2.779,18.515 2.779,19.151 C2.779,19.79 2.274,20.091 1.672,20.091 L0.383,20.091 L0.383,20.091 Z M6.568,23.2 C7.675,23.2 8.602,22.472 8.602,21.257 L8.602,19.485 C8.602,18.312 7.698,17.628 6.553,17.628 C5.446,17.628 4.512,18.349 4.512,19.569 L4.512,21.401 C4.512,22.575 5.446,23.2 6.568,23.2 L6.568,23.2 Z M6.568,22.657 C5.724,22.657 5.114,22.153 5.114,21.331 L5.114,19.562 C5.114,18.673 5.747,18.171 6.531,18.171 C7.396,18.171 7.999,18.649 7.999,19.466 L7.999,21.302 C7.999,22.183 7.344,22.657 6.568,22.657 L6.568,22.657 Z M11.743,23.2 C12.813,23.2 13.641,22.606 13.641,21.587 L13.641,21.394 L13.062,21.394 L13.062,21.507 C13.062,22.229 12.526,22.657 11.743,22.657 C10.9,22.657 10.289,22.146 10.289,21.331 L10.289,19.53 C10.289,18.681 10.922,18.183 11.705,18.183 C12.496,18.183 13.062,18.604 13.062,19.329 L13.062,19.517 L13.641,19.517 L13.641,19.253 C13.641,18.261 12.798,17.642 11.728,17.642 C10.552,17.642 9.687,18.394 9.687,19.54 L9.687,21.401 C9.687,22.575 10.597,23.2 11.743,23.2 L11.743,23.2 Z M14.778,23.101 L15.388,23.101 L15.388,20.593 L18.108,20.593 L18.108,23.101 L18.718,23.101 L18.718,17.731 L18.108,17.731 L18.108,20.06 L15.388,20.06 L15.388,17.731 L14.778,17.731 L14.778,23.101 L14.778,23.101 Z M21.996,23.192 C23.186,23.192 23.999,22.493 23.991,21.31 L23.991,17.731 L23.389,17.731 L23.389,21.265 C23.412,22.146 22.885,22.645 22.01,22.645 C21.203,22.645 20.624,22.198 20.624,21.243 L20.624,17.731 L20.015,17.731 L20.015,21.347 C20.015,22.645 20.955,23.192 21.996,23.192 L21.996,23.192 Z M25.287,23.101 L25.874,23.101 L25.874,18.802 L25.897,18.802 L27.472,21.858 L27.954,21.858 L29.529,18.794 L29.544,18.794 L29.544,23.101 L30.131,23.101 L30.131,17.731 L29.378,17.731 L27.728,21.022 L27.72,21.022 L26.032,17.731 L25.287,17.731 L25.287,23.101 L25.287,23.101 Z" id="Fill-4"></path>
                <path d="M1.785,14.495 C3.036,14.495 3.886,13.763 3.886,12.481 L3.886,9.04 L2.885,9.04 L2.885,12.438 C2.885,13.204 2.516,13.591 1.785,13.591 C1.001,13.591 0.685,13.101 0.685,12.438 L0.685,9.04 L-0.316,9.04 L-0.316,12.56 C-0.316,13.847 0.534,14.495 1.785,14.495 L1.785,14.495 Z M5.084,14.409 L6.048,14.409 L6.048,10.741 L6.062,10.741 L8.391,14.409 L9.37,14.409 L9.37,9.04 L8.407,9.04 L8.407,12.702 L8.391,12.702 L6.054,9.04 L5.084,9.04 L5.084,14.409 L5.084,14.409 Z M10.606,14.409 L11.606,14.409 L11.606,9.04 L10.606,9.04 L10.606,14.409 Z M14.063,14.433 L15.042,14.433 L16.82,9.04 L15.825,9.04 L14.613,12.993 L14.598,12.993 L13.385,9.04 L12.301,9.04 L14.063,14.433 L14.063,14.433 Z M17.513,14.409 L21.271,14.409 L21.271,13.528 L18.515,13.528 L18.515,12.112 L20.933,12.112 L20.933,11.231 L18.515,11.231 L18.515,9.921 L21.242,9.921 L21.242,9.04 L17.513,9.04 L17.513,14.409 L17.513,14.409 Z M22.373,14.409 L23.373,14.409 L23.373,12.399 L24.24,12.399 L25.498,14.409 L26.59,14.409 L25.257,12.288 C25.98,12.03 26.319,11.366 26.319,10.728 C26.319,9.628 25.506,9.04 24.496,9.04 L22.373,9.04 L22.373,14.409 L22.373,14.409 Z M23.373,11.558 L23.373,9.884 L24.36,9.884 C24.918,9.884 25.339,10.087 25.339,10.72 C25.339,11.276 24.956,11.558 24.376,11.558 L23.373,11.558 L23.373,11.558 Z M29.219,14.495 C30.402,14.495 31.283,13.839 31.283,12.853 C31.283,11.895 30.696,11.513 30.055,11.36 L29.136,11.136 C28.713,11.021 28.353,10.847 28.353,10.472 C28.353,9.989 28.775,9.794 29.211,9.794 C29.732,9.794 30.131,9.958 30.366,10.409 L31.185,10.05 C30.839,9.245 30.191,8.948 29.295,8.948 C28.254,8.948 27.374,9.538 27.374,10.546 C27.374,11.495 27.946,11.819 28.662,12.001 L29.565,12.218 C29.98,12.341 30.303,12.521 30.303,12.921 C30.303,13.417 29.792,13.628 29.25,13.628 C28.647,13.628 28.156,13.333 27.954,12.815 L27.05,13.169 C27.329,14.079 28.232,14.495 29.219,14.495 L29.219,14.495 Z M32.293,14.409 L33.295,14.409 L33.295,9.04 L32.293,9.04 L32.293,14.409 Z M35.735,14.409 L36.728,14.409 L36.728,9.899 L38.274,9.899 L38.274,9.04 L34.191,9.04 L34.191,9.899 L35.735,9.899 L35.735,14.409 L35.735,14.409 Z M38.048,14.409 L39.035,14.409 L39.441,13.267 L41.489,13.267 L41.881,14.409 L42.943,14.409 L40.962,9.04 L40.043,9.04 L38.048,14.409 L38.048,14.409 Z M39.719,12.407 L40.458,10.259 L40.473,10.259 L41.205,12.407 L39.719,12.407 L39.719,12.407 Z M39.291,8.558 L40.187,8.558 L40.187,7.572 L39.291,7.572 L39.291,8.558 Z M40.798,8.558 L41.693,8.558 L41.693,7.572 L40.798,7.572 L40.798,8.558 Z M44.322,14.409 L45.316,14.409 L45.316,9.899 L46.861,9.899 L46.861,9.04 L42.778,9.04 L42.778,9.899 L44.322,9.899 L44.322,14.409 L44.322,14.409 Z" id="Fill-5"></path>
                <path d="M-0.279,5.718 L0.722,5.718 L0.722,3.707 L1.589,3.707 L2.848,5.718 L3.938,5.718 L2.606,3.595 C3.329,3.339 3.667,2.677 3.667,2.037 C3.667,0.935 2.854,0.347 1.845,0.347 L-0.279,0.347 L-0.279,5.718 L-0.279,5.718 Z M0.722,2.865 L0.722,1.193 L1.709,1.193 C2.266,1.193 2.689,1.394 2.689,2.029 C2.689,2.585 2.306,2.865 1.725,2.865 L0.722,2.865 L0.722,2.865 Z M6.839,5.802 C8.09,5.802 8.939,5.072 8.939,3.791 L8.939,0.347 L7.938,0.347 L7.938,3.746 C7.938,4.515 7.57,4.9 6.839,4.9 C6.055,4.9 5.738,4.41 5.738,3.746 L5.738,0.347 L4.737,0.347 L4.737,3.867 C4.737,5.156 5.588,5.802 6.839,5.802 L6.839,5.802 Z M10.139,5.718 L11.14,5.718 L11.14,3.421 L13.288,3.421 L13.288,5.718 L14.289,5.718 L14.289,0.347 L13.288,0.347 L13.288,2.541 L11.14,2.541 L11.14,0.347 L10.139,0.347 L10.139,5.718 L10.139,5.718 Z M15.525,5.718 L16.525,5.718 L16.525,3.707 L17.393,3.707 L18.651,5.718 L19.742,5.718 L18.41,3.595 C19.132,3.339 19.471,2.677 19.471,2.037 C19.471,0.935 18.659,0.347 17.648,0.347 L15.525,0.347 L15.525,5.718 L15.525,5.718 Z M16.525,2.865 L16.525,1.193 L17.513,1.193 C18.07,1.193 18.493,1.394 18.493,2.029 C18.493,2.585 18.107,2.865 17.528,2.865 L16.525,2.865 L16.525,2.865 Z" id="Fill-6"></path>
            </g>
        </g>
    </g>
</svg>